<?xml version="1.0" encoding="UTF-8"?> <svg xmlns="http://www.w3.org/2000/svg" width="564" height="254" viewBox="0 0 564 254" fill="none"><path d="M116 208.9V46.3C116 36.7 112.1 31.9 104 31.9H92.6V223.3H104C112.1 223.3 116 218.5 116 208.9ZM104 250.9H65V4H104C130.4 4 143.6 19.9 143.6 46.3V208.9C143.6 236.8 130.4 250.9 104 250.9Z" fill="#F5F2EE"></path><path d="M231.245 250.9H163.145V4H229.745V31.9H190.745V111.1H216.845V139H190.745V223.3H231.245V250.9Z" fill="#F5F2EE"></path><path d="M334.22 250.9H306.32L301.82 212.8H271.52C269.42 225.7 268.22 238 266.72 250.9H239.72L271.82 4H303.92L334.22 250.9ZM274.22 187.3H298.82C294.32 149.8 290.42 113.5 286.82 75.1C283.22 113.5 279.02 151 274.22 187.3Z" fill="#F5F2EE"></path><path d="M381.596 250.9H353.996V31.9H328.196V4H407.396V31.9H381.596V250.9Z" fill="#F5F2EE"></path><path d="M499.557 250.9H471.957V139H448.557V250.9H420.957V4H448.557V111.4H471.957V4H499.557V250.9Z" fill="#F5F2EE"></path></svg> 