<?xml version="1.0" encoding="UTF-8"?> <svg xmlns="http://www.w3.org/2000/svg" width="399" height="594" viewBox="0 0 399 594" fill="none"><path d="M111.383 527.062L120.867 564.028L125.36 580.513L127.356 594H297.071L289.583 552.039L288.585 535.055L291.081 527.062L297.071 520.568L305.057 512.076L310.049 494.093L311.546 473.112L315.04 463.621L319.034 436.646L326.521 411.669L330.514 373.205L334.508 376.202L336.504 366.211L338.002 353.223L339 335.24L335.506 331.244L331.513 315.259V302.77L325.523 284.287V265.804L306.055 219.348L304.059 210.855L291.58 199.366L281.597 197.368L272.612 189.875L256.139 183.88L239.168 176.387L234.176 164.898L224.193 157.405L210.217 158.404L208.22 150.911V142.419L213.212 138.922L217.205 133.927L220.2 121.438L218.703 93.9639L205.724 72.9833L202.729 74.9815L197.239 63.9917L194.743 65.4903L192.746 60.9944L189.751 59.9954L182.763 56.4986L170.783 55L159.802 60.9944L155.808 59.9954L137.839 63.9917L128.854 78.4782L120.867 87.4699L123.862 93.9639L122.365 102.456L124.861 112.447L123.862 121.438L129.852 132.928L128.854 141.42L140.334 167.895L146.824 176.387L148.82 183.88L120.867 195.37L107.889 200.865L87.4235 247.821L85.9261 291.281L81.4336 302.271L83.4303 316.757L79.9361 322.252L78.9378 332.742L75.4437 336.739L73.9462 352.724L68.9546 361.715V376.702L54.479 436.146L49.4874 447.636L48.9882 452.631L42 457.626L42.4992 474.111L46.9916 478.108L48.9882 502.085L54.479 516.072L59.4706 522.566L75.4437 529.56H84.4286V525.064L88.921 522.566V517.071L89.9193 514.574L81.4336 510.078V487.599L71.4504 470.115L75.4437 466.119L71.4504 455.628L87.9227 427.155L104.894 393.186L111.383 409.671V427.155L104.894 442.64V452.631L100.402 472.613L108.887 491.095L111.383 527.062Z" fill="#659B9D"></path></svg> 