<?xml version="1.0" encoding="UTF-8"?> <svg xmlns="http://www.w3.org/2000/svg" width="2134" height="662" viewBox="0 0 2134 662" fill="none"><path fill-rule="evenodd" clip-rule="evenodd" d="M1754.69 98.7531C1742.7 100.415 1723.54 104.642 1721.28 106.122C1718.63 107.854 1717.79 110.467 1718.89 113.462C1720.23 117.078 1724.39 117.407 1739.53 115.091C1743.71 114.452 1743.78 114.491 1743.78 117.356C1743.78 120.236 1745.88 130.732 1755.66 176.678C1758.41 189.597 1762.52 210.288 1764.81 222.658C1768.87 244.698 1773.1 262.807 1776.21 271.513C1778.3 277.358 1778.32 277.312 1774.03 278.102C1768.35 279.146 1762.08 282.195 1760.84 284.516C1759.35 287.301 1760.51 291.406 1763.3 293.236C1765.44 294.636 1773.84 295.893 1790.27 297.275C1796.52 297.8 1797.47 297.64 1799.15 295.778C1801.98 292.628 1801.54 288.637 1798.02 285.667C1793.92 282.203 1785.95 258.465 1781.88 237.651C1780.22 229.13 1777.07 212.937 1774.89 201.667C1772.7 190.397 1767.73 167.327 1763.85 150.399C1756.9 120.144 1756.08 115.296 1757.54 113.106C1757.95 112.501 1762.31 111.73 1767.24 111.39C1777.15 110.708 1781.27 108.745 1781.27 104.709C1781.27 99.137 1770.05 96.623 1754.69 98.7531ZM1657.04 101.181C1646.07 106.288 1639.82 113.517 1637.74 123.501C1635.64 133.651 1638.67 151.594 1649.82 194.835C1653.82 210.341 1654 211.608 1652.46 213.149C1649.61 215.994 1650.36 220.931 1654.15 224.382C1656.83 226.825 1657.74 228.683 1658.72 233.788C1659.4 237.287 1662.9 252.745 1666.51 268.138C1670.12 283.532 1673.01 297.835 1672.94 299.926C1672.84 302.738 1673.44 304.36 1675.26 306.173C1678.22 309.138 1679.75 309.23 1683.04 306.645C1687.68 302.998 1687.54 301.575 1678.89 262.302C1676 249.196 1673.87 238.244 1674.15 237.962C1675.04 237.073 1692.49 249.583 1701.42 257.516C1726.81 280.067 1742.3 291.486 1748.68 292.341C1757.73 293.554 1760.32 281.842 1751.61 279.078C1747.81 277.873 1736.07 269.325 1725.86 260.331C1706.14 242.969 1699.26 237.551 1684.6 227.867C1676.51 222.528 1669.69 217.674 1669.45 217.081C1669.2 216.488 1672.14 211.316 1675.98 205.586C1691.35 182.657 1700.09 157.84 1698.22 142.39C1696.03 124.324 1687.2 106.959 1677.21 101.106C1671.65 97.8475 1664.14 97.8755 1657.04 101.181ZM403.076 106.708C401.977 107.807 401.077 109.547 401.077 110.572C401.077 114.177 411.019 141.413 420.1 162.684C440.645 210.815 472.702 297.161 485.142 337.878C488.54 349 491.957 359.356 492.736 360.891C495.539 366.417 503.014 366.402 505.165 360.866C506.004 358.705 505.649 354.512 503.545 341.723C502.064 332.715 500.621 320.796 500.339 315.234L499.827 305.122L505.925 314.278C518.157 332.643 533.619 341.969 551.68 341.874C564.532 341.806 574.572 337.255 584.79 326.861L592.042 319.485L594.787 321.395C608.53 330.955 628.968 334.236 640.024 328.657C646.377 325.452 653.315 317.738 656.576 310.255L659.352 303.883L664.935 308.131C677.206 317.47 692.256 323.614 702.859 323.614C711.203 323.614 717.149 320.88 721.578 315.006L724.677 310.896L730.657 316.674C742.575 328.191 754.874 328.065 765.707 316.315C772.364 309.095 777.29 299.782 779.713 289.834L780.515 286.54L785.984 296.205C792.241 307.258 798.6 315.817 803.681 320.023C808.058 323.645 815.134 324.623 819.74 322.242C825.738 319.141 832.848 307.998 836.969 295.245L838.223 291.364L840.819 294.745C856.714 315.447 874.528 325.111 887.595 320.121C896.99 316.534 907.71 302.382 912.019 287.88C912.713 285.543 913.596 283.632 913.98 283.632C914.364 283.632 917.849 287.14 921.721 291.428C929.655 300.213 939.9 307.58 947.755 310.149C955.682 312.741 965.775 311.827 974.548 307.722C982.744 303.888 991.109 297.909 996.025 292.371L999.604 288.341L1006.2 292.03C1020.8 300.193 1032.01 303.14 1052.57 304.22L1065.7 304.909L1067.39 302.332C1069.92 298.466 1069.04 294.582 1065.13 292.303C1062.59 290.828 1059.38 290.294 1051.34 290.009C1037.38 289.514 1028.11 287.456 1018.44 282.706C1006.8 276.983 1007.47 278.094 1010.4 269.373C1013.41 260.384 1013.76 250.412 1011.31 243.219C1009.04 236.563 1000.08 227.545 993.519 225.326C980.933 221.064 970.522 225.338 966.923 236.243C963.819 245.649 969.359 259.365 981.573 272.509L988.962 280.461L982.774 285.971C970.944 296.507 958.465 300.155 948.831 295.894C943.361 293.475 928.243 279.299 922.494 271.199L918.194 265.14L919.679 256.643C920.583 251.471 921.205 241.107 921.269 230.155C921.356 215.203 920.993 210.243 919.117 200.804C914.103 175.573 903.608 156.425 887.107 142.408C878.124 134.778 871.621 133.895 865.973 139.542C857.07 148.443 861.319 173.69 879.203 218.16C884.899 232.323 896.131 255.95 900.824 263.64C901.999 265.564 902.961 267.934 902.963 268.906C902.971 272.399 895.963 292.245 893.171 296.638C888.996 303.208 883.571 307.623 879.687 307.612C867.907 307.577 845.3 282.768 839.761 263.794C837.295 255.348 834.955 253.053 829.931 254.155C825.799 255.063 823.337 260.346 824.925 264.899C826.63 269.79 826.169 281.505 823.956 289.488C821.162 299.57 815.794 309.62 813.205 309.62C809.655 309.62 797.936 290.853 783.139 261.475C772.395 240.144 770.394 237.804 765.327 240.65C760.946 243.111 760.416 246.697 763.454 253.331C770.594 268.923 768.138 291.823 757.946 304.689C751.378 312.979 745.522 313.168 738.299 305.321C731.356 297.779 727.838 291.712 725.891 283.921C723.539 274.513 720.419 268.751 713.42 260.896C707.334 254.065 703.578 246.634 688.782 212.162C677.028 184.778 670.632 167.975 666.506 153.641C662.281 138.966 661.384 131.458 663.069 124.881C664.203 120.46 664.155 119.558 662.665 117.284C660.438 113.886 654.865 113.662 652.611 116.88C644.395 128.606 651.023 158.372 673.876 212.389C678.322 222.9 683.744 235.357 685.922 240.073L689.885 248.647H683.488C673.854 248.647 666.776 251.682 659.787 258.81C656.635 262.025 653.768 265.8 653.417 267.2C652.876 269.355 652.366 269.653 650.074 269.149C646.018 268.258 642.421 270.06 641.186 273.602C640.005 276.987 640.398 278.549 644.597 287.169C646.788 291.666 646.946 292.763 646.066 297.398C644.795 304.097 642.094 309.261 637.606 313.572C634.433 316.618 633.28 317.067 627.77 317.397C620.331 317.842 611.496 315.356 603.679 310.62L598.445 307.447L600.748 300.579C603.554 292.214 604.985 279.224 603.991 271.137C602.393 258.134 595.351 246.127 586.844 241.9C579.071 238.037 573.216 239.268 567.294 246.011C562.95 250.959 561.531 255.873 561.627 265.639C561.76 279.053 568.246 295.426 577.931 306.792L581.323 310.773L575.432 316.725C566.123 326.131 556.541 329.56 545.348 327.492C531.094 324.857 522.925 317.202 510.507 294.84C500.955 277.641 496.223 274.315 490.066 280.47C488.049 282.487 487.037 284.725 486.565 288.217C486.2 290.917 485.824 293.43 485.729 293.801C485.635 294.172 480.216 280.003 473.688 262.315C453.962 208.874 444.356 184.38 432.938 158.414C426.95 144.796 420.199 128.253 417.934 121.653C415.671 115.052 412.944 108.54 411.874 107.181C409.511 104.177 405.807 103.978 403.076 106.708ZM1660.67 114.71C1655.82 117.274 1652.03 121.95 1651.2 126.418C1650.13 132.104 1653.32 151.75 1658.93 173.975C1661.73 185.082 1664.36 194.776 1664.76 195.516C1665.28 196.474 1666.17 195.751 1667.84 193.018C1680.44 172.418 1686.01 154.06 1683.82 140.347C1681.48 125.693 1673.76 112.662 1667.47 112.749C1665.73 112.774 1662.67 113.656 1660.67 114.71ZM1519.57 114.396C1518.6 114.649 1517.18 116.069 1516.41 117.551C1515.2 119.892 1515.27 121.95 1516.91 133.218C1519.99 154.266 1521.69 170.748 1523.32 195.17C1525.11 221.886 1526.91 237.577 1530.23 255.374C1531.54 262.394 1533.6 273.536 1534.8 280.133C1537.79 296.521 1537.94 296.942 1541.15 298.069C1544.44 299.225 1546.63 298.156 1548.8 294.339C1550.1 292.038 1550.07 290.606 1548.45 281.444C1541.02 239.293 1539.89 230.633 1537.33 196.169L1536.74 188.173L1547.56 213.162C1563.64 250.286 1566.07 254.008 1573 252.021C1579.75 250.087 1582.1 243.055 1588.27 206.395C1590.16 195.117 1592.02 182.467 1592.4 178.285C1592.78 174.102 1593.38 170.68 1593.72 170.68C1595.16 170.68 1610.52 229.348 1619.89 270.637C1624.32 290.154 1628.59 307.126 1629.39 308.355C1631.25 311.232 1635.07 312.165 1638.75 310.643C1640.96 309.729 1642.32 307.887 1644.4 302.993C1645.9 299.448 1649.08 293.528 1651.46 289.839C1656.47 282.079 1656.95 278.436 1653.31 276.048C1649.64 273.646 1646.54 274.924 1641.91 280.745C1639.31 284 1637.66 285.364 1637.37 284.496C1637.11 283.745 1635.05 274.81 1632.79 264.64C1627.54 241.022 1620.9 214.439 1615.25 194.417C1612.81 185.756 1607.89 167.593 1604.31 154.054C1600.73 140.516 1597.24 128.265 1596.55 126.829C1595.05 123.694 1590.55 121.332 1587.77 122.215C1583.86 123.455 1582.88 126.749 1581.8 142.248C1581.22 150.464 1580.09 163.258 1579.29 170.68C1577.59 186.448 1570.98 226.807 1569.92 227.921C1569.12 228.757 1552.31 189.789 1543.5 166.682C1537.76 151.639 1531.54 132.102 1530.29 125.19C1529.34 120 1527.29 116.02 1524.89 114.734C1522.88 113.663 1522.48 113.637 1519.57 114.396ZM875.586 151.505C874.64 153.036 876.443 165.772 879.049 175.98C882.496 189.479 893.067 217.15 902.036 236.152L906.282 245.148L907.066 241.15C909.015 231.217 907.357 209.842 903.496 195.126C899.226 178.846 893.582 168.568 882.48 156.853C878.48 152.632 876.054 150.75 875.586 151.505ZM1187.79 208.986C1175.07 213.733 1168.54 227.449 1168.67 249.183C1168.78 268.575 1174.28 285.612 1183.43 294.892C1189.69 301.238 1194.38 302.537 1200.45 299.604C1202.87 298.43 1206.06 296.043 1207.53 294.299C1210.32 290.996 1215.9 280.055 1215.9 277.884C1215.9 275.867 1217.49 276.449 1218.63 278.884C1220.65 283.172 1227.3 289.91 1231.34 291.742C1244.4 297.672 1257.26 288.112 1269.49 263.39C1273.27 255.747 1274.87 253.972 1274.9 257.393C1274.93 261.161 1282.64 290.607 1284.24 293.043C1285.93 295.633 1289.63 296.429 1293.34 295.006C1296.08 293.951 1297.88 289.039 1297.88 282.576C1297.88 267.332 1307.63 247.346 1319.75 237.748C1326.49 232.417 1326.51 232.445 1333.35 252.645C1339.06 269.489 1343.35 277.939 1349.67 284.772C1357.65 293.402 1360.34 294.145 1379.66 293.033C1388.3 292.535 1407.82 292.128 1423.05 292.128C1440.22 292.128 1451.1 291.748 1451.68 291.128C1453.92 288.75 1453.9 285.808 1451.63 283.245C1449.83 281.21 1447.76 280.407 1441.85 279.455C1432.82 278.001 1401.31 277.791 1379.58 279.041L1363.8 279.949L1360.77 277.042C1355.99 272.468 1352.4 265.284 1347.04 249.545C1344.3 241.518 1341.13 233.127 1340 230.9C1337.6 226.213 1331.79 221.067 1328.09 220.36C1318.43 218.515 1302.25 232.322 1292.35 250.85C1290.55 254.219 1288.95 256.233 1288.67 255.48C1288.39 254.745 1286.89 247.88 1285.33 240.224C1282.14 224.616 1280.36 221.325 1275.1 221.325C1270.71 221.325 1269.38 222.827 1267.45 229.922C1260.96 253.79 1246.18 279.633 1239.02 279.633C1234.09 279.633 1226.39 266.967 1223.17 253.554C1221.59 246.969 1221.59 246.433 1223.26 243.604C1224.8 241.012 1224.88 239.893 1223.91 235.201C1222.63 229.053 1216.87 219.495 1211.94 215.348C1204.26 208.888 1194.76 206.385 1187.79 208.986ZM1188.42 224.054C1178.82 233.645 1181.79 275.081 1192.78 285.019C1195.41 287.396 1197.07 286.229 1200.35 279.696C1204.72 271.005 1206.34 262.244 1206.46 246.647C1206.52 238.676 1206.74 231.704 1206.95 231.154C1207.6 229.416 1205.05 225.911 1201.55 223.746C1196.91 220.881 1191.46 221.007 1188.42 224.054ZM980.617 238.318C979.243 239.69 980.048 245.315 982.308 250.146C984.678 255.211 994.396 267.638 995.986 267.638C997.383 267.638 998.934 260.615 998.94 254.262C998.947 247.381 996.647 242.863 991.529 239.7C988.343 237.732 982.006 236.929 980.617 238.318ZM369.848 245.644C361.979 248.013 354.309 255.645 349.86 265.534C347.674 270.391 344.603 274.516 338.241 281.14C333.485 286.091 325.466 294.863 320.423 300.631C315.38 306.4 309.838 312.469 308.107 314.118C305.325 316.77 304.853 316.924 304.027 315.453C301.441 310.841 292.184 301.074 286.742 297.215C283.366 294.821 275.654 290.272 269.606 287.106C256.354 280.171 255.653 279.588 256.498 276.219C257.759 271.196 274.37 260.598 280.891 260.656C284.517 260.689 285.315 262.108 283.493 265.283C281.312 269.081 282.273 273.301 285.67 274.848C294.306 278.783 301.816 264.529 295.842 255.542C293.075 251.379 285.992 247.647 280.86 247.647C270.933 247.647 254.026 256.85 247.143 266C237.563 278.735 241.234 288.168 259.279 297.184C271.261 303.17 278.313 307.638 283.475 312.515C289.019 317.753 294.1 325.104 294.1 327.887C294.1 328.922 291.289 333.13 287.852 337.239C284.415 341.348 279.512 347.206 276.957 350.259C270.028 358.532 266.773 365.01 267.527 369.024C268.204 372.631 270.33 374.966 273.941 376.069C277.461 377.142 287.602 371.704 295.401 364.559C303.636 357.014 308.271 348.351 308.927 339.276L309.369 333.178L327.379 313.387C337.285 302.5 345.602 293.807 345.863 294.067C346.123 294.328 347.417 297.747 348.736 301.668C357.228 326.879 382.287 342.049 412.556 340.305C428.79 339.37 455.295 333.034 466.353 327.447C471.058 325.069 472.85 321.641 471.236 318.102C469.067 313.341 466.023 312.96 457.337 316.363C448.602 319.786 436.863 322.831 423.691 325.09C394.74 330.056 372.945 321.615 363.414 301.748C361.273 297.285 360.629 294.266 360.292 287.096L359.866 278.065L363.978 274.351C366.239 272.308 368.876 270.649 369.837 270.664C370.797 270.678 374.958 273.417 379.082 276.749C390.735 286.165 395.35 287.998 401.511 285.656C405.029 284.318 408.069 278.973 408.061 274.136C408.042 260.905 391.105 244.508 377.692 244.734C374.882 244.781 371.352 245.191 369.848 245.644ZM576.487 257.111C574.626 261.565 574.653 266.735 576.574 274.113C578.48 281.428 581.323 287.961 584.78 292.964C587.298 296.61 587.468 296.691 588.237 294.612C589.839 290.282 590.775 276.905 589.876 271.178C588.846 264.605 586.931 260.342 583.236 256.393C579.833 252.757 578.236 252.927 576.487 257.111ZM379.631 259.525C383.288 262.925 392.079 269.512 392.079 268.852C392.079 267.723 385.039 261.112 382.397 259.76C379.782 258.422 378.311 258.297 379.631 259.525ZM675.517 264.028C673.867 264.748 670.831 267.205 668.768 269.489C665.387 273.234 665.019 274.186 665.019 279.176C665.019 287.95 669.345 294.628 679.598 301.681C688.377 307.719 702.481 311.295 708.464 309C710.978 308.035 713.008 303.182 713.008 298.14C713.008 294.573 712.041 291.849 708.641 285.846C706.239 281.604 702.888 275.38 701.193 272.016C698.624 266.912 697.438 265.626 694.043 264.269C689.189 262.327 679.698 262.203 675.517 264.028ZM1167.98 346.844C1164.91 348.434 1163.7 352.69 1164.48 359.099C1165.47 367.247 1170.5 392.37 1176.5 419.073C1181.36 440.729 1182.22 446.13 1182.91 459.556C1183.46 470.204 1184.31 476.936 1185.64 481.085C1187.54 487.049 1187.54 487.152 1185.63 489.712C1182.94 493.311 1184.04 498.042 1188.05 500.115C1191.71 502.008 1230.72 503.007 1240.67 501.465C1254.7 499.289 1264.42 493.138 1269.3 483.339C1271.38 479.181 1271.89 476.703 1271.89 470.823C1271.89 463.423 1269.42 453.829 1266.29 449.055C1264.8 446.784 1264.84 446.755 1270.09 446.045C1273 445.65 1278.07 444.498 1281.34 443.486C1284.62 442.473 1287.34 441.739 1287.38 441.853C1287.43 441.969 1288.03 444.312 1288.71 447.061C1291.63 458.781 1301.59 469.252 1311.92 471.466C1319.26 473.04 1328.38 470.831 1333.97 466.124L1336.7 463.826L1344.63 471.613C1351.35 478.222 1353.44 479.656 1358.38 481.094C1365.45 483.15 1371.52 482.135 1379.53 477.557C1385.19 474.324 1393.54 465.448 1397.81 458.138L1400.54 453.473L1403.11 457.363C1406.34 462.244 1413.66 467.148 1420.83 469.24C1425.38 470.566 1427.3 470.65 1431.76 469.72C1441.91 467.6 1451.31 461.176 1456.82 452.598C1458.6 449.828 1460.42 447.561 1460.88 447.561C1461.65 447.561 1462.32 450.246 1464.78 463.15C1467.44 477.077 1474.11 487.403 1479.6 486.113C1481.11 485.76 1483.4 484.276 1484.71 482.817C1488.2 478.901 1487.13 473.329 1479.37 455.005C1471.66 436.813 1469.85 430.477 1469.83 421.612C1469.82 418.017 1469.48 414.58 1469.08 413.975C1467.7 411.909 1463.89 410.528 1461.34 411.168C1458.18 411.959 1456.96 414.172 1455.29 422.147C1450.88 443.258 1435.41 459.536 1423.5 455.606C1414.96 452.79 1410.12 445.549 1408.94 433.832C1408.07 425.237 1406.89 422.194 1403.74 420.512C1402.22 419.696 1400.93 419.713 1398.85 420.575C1395.8 421.839 1394.35 424.665 1393.33 431.318C1392.98 433.655 1392.33 435.566 1391.91 435.566C1391.48 435.566 1389.89 433.776 1388.37 431.589C1385.03 426.769 1378.2 421.03 1373.44 419.039C1369.04 417.204 1360.81 417.149 1356.59 418.926C1352.19 420.773 1345.45 427.74 1342.84 433.122C1341.66 435.566 1340.04 437.565 1339.24 437.565C1336.64 437.565 1332.87 442.275 1332.87 445.518C1332.87 447.77 1331.81 449.599 1328.77 452.541C1324.26 456.916 1319.27 458.786 1314.6 457.852C1310.02 456.936 1304.26 450.582 1302.43 444.436C1300.24 437.064 1300.48 433.5 1303.41 429.528C1307.43 424.086 1308.42 419.529 1306.44 415.694C1302.57 408.208 1295.3 410.106 1290.65 419.819C1288.39 424.544 1287.11 425.927 1283.12 427.947C1275.66 431.727 1267.53 432.977 1259.01 431.656C1250.33 430.308 1246.46 431.689 1245.4 436.513C1244.69 439.736 1245.06 440.624 1251.49 451.268C1256.67 459.834 1257.89 463.476 1257.89 470.332C1257.89 479.953 1252.5 485.249 1240.46 487.456C1231.55 489.089 1231.27 488.99 1234.31 485.295C1238.37 480.351 1242.85 470.478 1243.87 464.191C1246.32 449.14 1238.32 432.65 1225.39 426.112C1215.31 421.01 1205.47 421.601 1197.59 427.779C1195.49 429.424 1193.62 430.611 1193.42 430.418C1192.85 429.842 1181.2 378.936 1178.97 367.307C1177.08 357.401 1177.04 356.326 1178.49 354.116C1179.84 352.051 1179.88 351.31 1178.73 348.906C1177.69 346.732 1176.61 346.047 1173.9 345.845C1171.98 345.701 1169.31 346.151 1167.98 346.844ZM886.726 348.359C877.781 353.903 878.499 366.766 890.528 416.467C894.079 431.14 894.733 435.146 893.766 436.31C892.023 438.409 883.896 443.441 873.069 449.123C860.664 455.635 857.977 458.172 857.977 463.378C857.977 468.436 860.142 470.692 873.752 479.817C887.382 488.954 897.394 493.605 904.674 494.181C911.49 494.721 914.421 493.47 917.684 488.631C921.005 483.704 920.625 478.325 915.524 458.016L911.084 440.343L917.681 432.707C921.309 428.507 924.338 424.976 924.414 424.86C924.49 424.743 927.376 433.064 930.829 443.352C937.843 464.254 942.809 477.145 945.323 480.982C947.576 484.42 953.059 484.533 956.383 481.209C958.216 479.377 958.879 477.277 959.462 471.464C959.871 467.388 960.512 463.223 960.888 462.208C961.524 460.487 961.776 460.535 964.604 462.914C969.904 467.372 982.236 473.413 989.457 475.087C993.319 475.983 999.35 476.57 1002.96 476.404C1008.71 476.139 1009.91 476.417 1012.97 478.713C1025.05 487.791 1046.09 493.537 1067.23 493.54C1087.78 493.542 1098.92 488.861 1098.92 480.224C1098.92 472.791 1090.57 467.43 1082.47 469.666C1078.14 470.864 1072.93 475.474 1072.93 478.118C1072.93 479.686 1071.87 479.786 1061.18 479.232C1054.72 478.897 1046.18 477.752 1042.19 476.686C1034.54 474.643 1025.94 471.392 1025.96 470.551C1025.96 470.276 1027.56 469.021 1029.5 467.762C1034.99 464.208 1038.94 457.215 1038.94 451.059C1038.94 435.736 1020.32 425.447 1007.83 433.865C999.59 439.416 995.91 451.483 999.559 460.988C1000.21 462.674 999.851 462.772 995.357 462.151C989.388 461.326 978.353 456.103 971.065 450.653C963.683 445.133 960.109 444.054 955.543 445.961C953.573 446.783 951.437 448.605 950.798 450.008C950.159 451.411 949.34 452.559 948.979 452.559C948.618 452.559 945.778 444.575 942.668 434.816C933.238 405.222 933.496 406.541 934.85 394.858C936.689 378.995 934.453 366.872 928.814 362.128C924.957 358.882 922.734 358.938 918.885 362.376C913.633 367.069 913.207 377.598 917.506 396.474L919.188 403.863L914.989 412.142C911.192 419.629 907.54 424.563 906.595 423.482C905.877 422.661 895.909 380.857 894.461 372.593C892.52 361.522 892.538 361.264 895.469 357.782C901.549 350.558 894.842 343.328 886.726 348.359ZM722.428 373.963C714.216 377.668 708.668 386.083 707.429 396.716C706.76 402.455 709.482 420.982 712.979 434.498C714.037 438.584 714.665 442.309 714.375 442.778C714.086 443.246 706.612 450.353 697.766 458.57L681.682 473.512L677.093 469.221C661.181 454.339 632.64 453.664 623.919 467.963L622.035 471.051L622.032 467.277C622.029 464.183 622.472 463.336 624.5 462.566C629.262 460.755 628.743 452.279 623.794 451.037C619.937 450.069 613.83 452.721 611.318 456.455C609.5 459.154 609.036 461.206 609.055 466.451C609.088 475.213 610.412 480.586 614.669 489.232C625.114 510.445 650.006 519.067 672.256 509.18C681.11 505.246 687.987 495.975 688.008 487.944C688.012 486.61 690.292 483.893 694.263 480.493C697.7 477.549 704.644 471.129 709.696 466.227L718.88 457.313L720.405 462.683C723.867 474.872 725.242 481.708 724.393 482.513C723.905 482.977 718.867 484.775 713.196 486.511C702.46 489.798 699.509 491.711 698.407 496.102C697.411 500.07 700.457 503.265 711.19 509.505C730.519 520.742 737.927 528.245 742.542 541.256C747.368 554.863 748.719 557.456 751.538 558.527C755.477 560.026 759.285 557.858 760.36 553.505C761.09 550.552 760.502 548.101 756.53 537.522C753.949 530.65 749.676 517.606 747.036 508.535L742.235 492.042L745.867 490.749C750.78 489 797.387 474.91 802.854 473.521C807.708 472.286 812.296 468.374 811.806 465.886C811.63 464.995 810.298 463.379 808.844 462.296C804.967 459.404 797.969 459.76 786.874 463.413C764.234 470.869 739.455 478.232 738.907 477.665C738.58 477.326 736.557 470.131 734.414 461.677L730.515 446.307L738.008 439.379C749.283 428.957 755.013 424.897 759.498 424.153C766.072 423.064 768.857 421.533 771.231 417.706C774.646 412.201 774.347 403.744 770.485 396.583C766.317 388.856 757.506 380.457 749.354 376.443C743.489 373.555 741.378 373.057 734.029 372.833C728.389 372.662 724.465 373.044 722.428 373.963ZM1450.7 374.263C1449.79 374.503 1448.5 376.023 1447.83 377.639C1446.33 381.251 1448.18 384.675 1452.96 387.148C1461.03 391.316 1467.31 382.054 1460.82 375.567C1458.94 373.692 1454.84 373.163 1450.7 374.263ZM724.729 389.135C720.316 393.547 720.254 402.365 724.494 422.516C725.355 426.608 726.278 430.173 726.542 430.439C726.808 430.705 728.259 429.806 729.765 428.44C741.413 417.884 745.123 414.967 749.5 412.927C752.25 411.645 755.526 410.592 756.78 410.587C764.788 410.552 754.77 394.229 743.502 388.949C736.336 385.592 728.193 385.673 724.729 389.135ZM1489.01 408.09C1486.27 411.57 1484.51 419.62 1485.35 424.792C1486.3 430.596 1489.38 439.177 1497.12 457.557C1506.81 480.573 1507.65 482.253 1510.49 484.49C1513.87 487.146 1516.09 487.084 1519.4 484.24C1521.85 482.137 1522.16 481.021 1523 471.496C1523.5 465.753 1524.56 458.451 1525.36 455.27C1527.29 447.559 1531.09 438.331 1532.33 438.322C1532.88 438.318 1534.81 442.082 1536.63 446.686C1546.49 471.702 1548.76 475.508 1556.71 480.247C1576.5 492.057 1610.76 483.217 1645.41 457.358C1662.55 444.566 1677.33 431.295 1678.3 427.836C1679.04 425.166 1675 420.573 1671.91 420.573C1670.82 420.573 1665.74 424.06 1660.62 428.323C1624.17 458.657 1596.8 472.531 1575.82 471.317C1561.89 470.51 1559.21 467.764 1551.45 446.344C1544.72 427.735 1540.12 421.566 1533 421.579C1525.04 421.593 1518.7 429.68 1513.4 446.561C1512.45 449.585 1511.46 452.727 1511.2 453.542C1510.63 455.305 1503.89 440.748 1500.23 429.834C1497.84 422.725 1497.74 421.741 1498.87 416.395C1499.94 411.359 1499.89 410.306 1498.44 408.103C1496.21 404.69 1491.69 404.683 1489.01 408.09ZM1358.61 434.317C1354.78 438.316 1352.87 443.683 1352.87 450.463C1352.87 461.177 1356.07 464.913 1365.32 465.003C1372.28 465.07 1377.32 462.298 1379.89 456.999C1382.27 452.085 1382.3 451.201 1380.29 445.312C1379.27 442.301 1377.03 439.126 1373.84 436.138C1369.78 432.346 1368.29 431.568 1365.1 431.568C1362.2 431.568 1360.59 432.249 1358.61 434.317ZM1204.5 439.611C1202.59 441.286 1200.27 444.645 1199.34 447.076C1197.71 451.354 1197.74 451.933 1200.28 465.068C1201.72 472.531 1202.9 480.418 1202.9 482.592C1202.9 486.328 1203.07 486.544 1205.94 486.544C1213.06 486.544 1224.25 477.762 1227.94 469.279C1229.53 465.643 1230.21 462.17 1230.18 457.86C1230.09 441.998 1214.44 430.882 1204.5 439.611ZM1014.52 446.132C1012.15 448.493 1011.55 452.293 1012.84 456.612C1013.94 460.295 1014.13 460.433 1016.72 459.456C1020.68 457.961 1024.94 453.534 1024.94 450.912C1024.94 445.986 1017.89 442.755 1014.52 446.132ZM893.973 453.128C892.051 454.482 886.989 457.405 882.725 459.623C878.461 461.841 874.973 463.814 874.973 464.008C874.973 464.801 891.485 474.878 897.259 477.609C904.717 481.137 905.982 481.238 905.914 478.298C905.824 474.397 899.515 451.203 898.468 450.928C897.918 450.783 895.895 451.772 893.973 453.128ZM638.821 472.637C631.406 475.514 636.671 487.696 646.503 490.41C651.946 491.912 661.975 488.816 668.722 483.551L670.925 481.831L668.222 479.243C662.047 473.332 646.204 469.771 638.821 472.637ZM725.006 497.187C724.181 497.467 722.865 497.903 722.082 498.153C721.189 498.44 722.616 499.899 725.92 502.073C728.812 503.978 731.317 505.536 731.486 505.536C731.655 505.536 731.229 503.625 730.541 501.288C729.312 497.126 728.011 496.161 725.006 497.187Z" fill="#659B9D"></path></svg> 