<?xml version="1.0" encoding="UTF-8"?> <svg xmlns="http://www.w3.org/2000/svg" width="347" height="171" viewBox="0 0 347 171" fill="none"><path d="M15.0063 26.999C15.0063 45.5624 15.0063 64.1257 15.0063 82.689C15.0063 90.2392 17.8316 97.503 17.8316 104.651" stroke="#2C2C2C" stroke-width="4" stroke-linecap="round"></path><path d="M2 37.9988C19.4816 37.9988 41.4836 41.5188 44.2997 62.6279C46.0844 76.0064 21.7728 90.2376 10.4756 90.2376" stroke="#2C2C2C" stroke-width="4" stroke-linecap="round"></path><path d="M49.2717 75.0728C56.0536 75.9201 55.4814 89.9534 64.1825 82.838C74.7682 74.1816 76.1112 68.8472 76.1112 54.6793C76.1112 44.8753 67.2939 36.5435 56.6486 40.09C43.4509 44.487 49.2717 63.3996 49.2717 72.9976" stroke="#2C2C2C" stroke-width="4" stroke-linecap="round"></path><path d="M80.3489 42.6001V84.9559" stroke="#2C2C2C" stroke-width="4" stroke-linecap="round"></path><path d="M84.0403 43.413C85.1826 54.8305 93.9116 68.9641 103.817 74.7876C104.731 75.3251 106.273 78.4774 106.563 79.4938C107.46 82.6294 106.642 71.085 106.642 69.6893C106.642 52.4593 106.642 35.2294 106.642 17.9995" stroke="#2C2C2C" stroke-width="4" stroke-linecap="round"></path><path d="M120.058 20.9993V37.9422" stroke="#2C2C2C" stroke-width="4" stroke-linecap="round"></path><path d="M145.329 24.2458C145.329 5.89164 145.329 60.9542 145.329 79.3083" stroke="#2C2C2C" stroke-width="4" stroke-linecap="round"></path><path d="M127.062 25.6469C135.501 24.8033 141.866 19.9993 150.84 19.9993C154.686 19.9993 158.531 19.9993 162.377 19.9993" stroke="#2C2C2C" stroke-width="4" stroke-linecap="round"></path><path d="M207.101 26.8547V66.4722" stroke="#2C2C2C" stroke-width="4" stroke-linecap="round"></path><path d="M188.092 26.2125C200.919 26.2125 213.612 22.855 226.386 22.855" stroke="#2C2C2C" stroke-width="4" stroke-linecap="round"></path><path d="M222.466 46.2927C222.466 48.9742 222.389 51.6701 222.466 54.3505C222.576 58.1858 225.312 59.0738 227.692 61.2145C233.926 66.8228 238.04 62.8912 243.144 57.5587C249.006 51.4328 259.844 33.0588 245.98 28.9834C240.337 27.3246 232.858 27.2749 227.692 30.3264C222.52 33.3809 219.107 43.2181 219.107 48.9786" stroke="#2C2C2C" stroke-width="4" stroke-linecap="round"></path><path d="M257.125 23.5989C257.125 32.6764 257.125 41.7538 257.125 50.8312C257.125 53.5307 266.42 63.2123 269.939 59.6949C278.567 51.0721 279.968 42.0299 279.968 29.4184C279.968 26.939 281.56 13.9865 279.296 12.8552" stroke="#2C2C2C" stroke-width="4" stroke-linecap="round"></path><path d="M311.684 15.5575C308.489 15.5575 305.255 14.6822 302.129 14.886C295.448 15.3215 290.441 26.768 288.095 31.7476C285.731 36.7661 284.139 41.8256 284.139 47.3782C284.139 55.5725 293.075 56.8311 299.927 56.0702C305.515 55.4496 309.695 53.3514 313.961 49.8776C315.146 48.9127 316.424 47.77 317.731 47.1171" stroke="#2C2C2C" stroke-width="4" stroke-linecap="round"></path><path d="M324.228 2C324.228 14.0867 324.228 26.1733 324.228 38.26C324.228 43.3812 323.277 49.5086 324.9 54.3756" stroke="#2C2C2C" stroke-width="4" stroke-linecap="round"></path><path d="M322.158 32.1977C325.361 31.7976 328.141 30.8547 331.713 30.8547C336.142 30.8547 340.571 30.8547 345 30.8547" stroke="#2C2C2C" stroke-width="4" stroke-linecap="round"></path><path d="M343.04 5.35742V55.7185" stroke="#2C2C2C" stroke-width="4" stroke-linecap="round"></path><path d="M62.1253 169C62.1253 165.953 61.1611 163.265 60.483 160.308C58.7554 152.773 58.0943 145.156 58.0943 137.44C58.0943 136.917 57.2779 120.653 58.7661 120.653C60.7663 120.653 63.1125 124.842 64.1408 126.062C66.8582 129.288 68.6887 133.164 71.2324 136.433C71.5563 136.849 73.5946 141.853 74.0691 141.32C75.2095 140.038 76.1455 117.499 79.593 117.296C84.0131 117.036 86.4356 143.33 87.2818 147.438C88.2928 152.346 89.6706 157.938 89.6706 162.957" stroke="#2C2C2C" stroke-width="4" stroke-linecap="round"></path><path d="M95.0451 119.31C95.0451 122.992 92.2889 141.513 96.3888 143.335C99.2881 144.622 103.019 142.472 105.16 140.761C111.475 135.711 111.169 128.987 111.169 121.437C111.169 119.979 110.964 112.442 111.169 117.967C111.291 121.248 112.707 124.541 113.521 127.704C114.743 132.454 115.43 137.34 116.208 142.178C116.994 147.065 109.363 158.366 106.552 162.994" stroke="#2C2C2C" stroke-width="4" stroke-linecap="round"></path><path d="M175.363 107.996C167.766 107.996 161.574 122.255 165.092 128.725C167.782 133.672 176.983 133.541 182.081 135.005C186.913 136.393 201.386 137.79 195.742 146.196C189.009 156.224 178.892 156.701 172.095 159.224" stroke="#2C2C2C" stroke-width="4" stroke-linecap="round"></path><path d="M206.57 109.238C206.57 118.165 207.133 127.054 207.241 135.948C207.306 141.274 206.975 146.042 208.584 150.87" stroke="#2C2C2C" stroke-width="4" stroke-linecap="round"></path><path d="M189.092 108.668C199.639 108.668 210.11 107.996 220.668 107.996" stroke="#2C2C2C" stroke-width="4" stroke-linecap="round"></path><path d="M226.11 109.383C226.11 114.431 226.11 119.48 226.11 124.528C226.11 131.45 227.382 135.687 230.739 141.838C232.658 145.355 235.812 150.811 240.974 149.997C252.984 148.101 252.984 126.762 252.984 119.455C252.984 113.511 249.044 107.734 247.609 101.996" stroke="#2C2C2C" stroke-width="4" stroke-linecap="round"></path><path d="M281.9 100.079C278.609 100.079 274.675 99.3089 272.569 102.467C269.63 106.872 269.082 114.884 269.135 120C269.251 131.261 275.15 140.276 278.54 150.441" stroke="#2C2C2C" stroke-width="4" stroke-linecap="round"></path><path d="M262.128 125.382C267.532 124.482 272.536 120.775 277.953 119.488C281.247 118.706 284.283 117.996 287.658 117.996" stroke="#2C2C2C" stroke-width="4" stroke-linecap="round"></path><path d="M309.316 93.9968C293.644 93.9968 297.965 120.175 298.865 124.825C300.116 131.282 303.734 136.742 305.808 142.88" stroke="#2C2C2C" stroke-width="4" stroke-linecap="round"></path><path d="M288.141 114.464C292.427 113.608 296.6 110.21 301.055 109.242C303.102 108.797 305.541 109.092 307.624 109.092" stroke="#2C2C2C" stroke-width="4" stroke-linecap="round"></path><path d="M331.162 79.9973V120.958" stroke="#2C2C2C" stroke-width="4" stroke-linecap="round"></path><path d="M330.662 133.995C330.662 137.819 327.577 138.776 331.849 138.696C332.943 138.675 337.959 137.016 337.111 139.181C336.248 141.386 330.662 143.527 330.662 145.995" stroke="#2C2C2C" stroke-width="4" stroke-linecap="round"></path></svg> 