<?xml version="1.0" encoding="UTF-8"?> <svg xmlns="http://www.w3.org/2000/svg" width="41" height="24" viewBox="0 0 41 24" fill="none"><path d="M12.6566 23.7072H10.0863V17.0726C10.0863 14.087 10.1166 11.1567 10.2073 8.17114C9.63274 11.9031 9.08845 15.6627 7.96962 23.7072H5.55055L3.37338 8.17114C3.4641 11.1567 3.49434 14.087 3.49434 17.0726V23.7072H0.924072V0.955994H4.6434C5.85294 11.2396 6.33675 14.5293 6.72985 17.7637C7.12295 14.5846 7.637 11.1844 8.84654 0.955994H12.6566V23.7072Z" fill="#FAF9F8"></path><path d="M21.3078 23.7072H14.4437V0.955994H21.1566V3.52691H17.2257V10.825H19.8564V13.3959H17.2257V21.1639H21.3078V23.7072Z" fill="#FAF9F8"></path><path d="M31.2638 23.7072H28.5424C26.6978 15.8839 25.7 12.1243 24.8835 8.44758C24.9742 11.5714 24.944 14.6952 24.944 17.819V23.7072H22.5552V0.955994H25.8209C27.4538 9.38748 28.2098 12.8707 28.9355 16.4091C28.8448 13.7553 28.875 11.2396 28.875 8.69638V0.955994H31.2638V23.7072Z" fill="#FAF9F8"></path><path d="M38.1421 20.0858V0.955994H40.9241V20.0858C40.9241 22.6567 39.5936 23.956 36.9628 23.956C34.3321 23.956 33.0016 22.6567 33.0016 20.0858V0.955994H35.7835V20.0858C35.7835 20.9704 36.1766 21.4127 36.9628 21.4127C37.749 21.4127 38.1421 20.9704 38.1421 20.0858Z" fill="#FAF9F8"></path></svg> 