<?xml version="1.0" encoding="UTF-8"?> <svg xmlns="http://www.w3.org/2000/svg" width="376" height="623" viewBox="0 0 376 623" fill="none"><path d="M123.229 134.622C126.425 143.522 128.846 158.175 128.846 158.175C128.846 158.175 117.182 159.251 110.497 162.288C101.149 166.536 84.021 167.072 77.5432 171.261C62.3136 181.108 56.198 181.354 36.3508 198.179C12.1777 218.672 8.29789 275.793 3.02244 305.105C-2.253 334.418 2.72444 340.201 18.7504 348.474C24.9925 351.697 36.3508 352.213 36.3508 352.213C36.3508 352.213 41.0851 332.951 52.0788 334.639C66.6834 336.883 69.3047 357.445 69.3047 357.445C69.3047 357.445 92.6666 393.693 82.0369 412.778C77.2114 421.442 71.2915 461.054 69.3047 470.767C64.9749 491.933 52.0788 573.734 52.0788 605.513L307.846 621C302.966 591.994 304.289 516.039 296.5 487.74C290.315 465.267 272.271 387.356 272.271 387.356C266.886 354.919 274.142 333.639 307.846 339.5L331.812 367.915C331.812 367.915 357.854 368.015 367.388 357.073C396.756 323.367 333.458 221.817 307.846 203.787C297.795 196.712 289.36 197.511 279.386 190.328C274.008 186.455 272.277 182.621 266.654 179.112C257.71 173.53 240.815 171.261 240.815 171.261C230.73 158.966 218.9 153.523 202.993 152.567C202.409 146.608 194.719 101.306 202.993 100.598L207.861 97.2334C210.888 85.9018 208.984 60.2206 199.622 63.213C200.57 17.4834 167.043 -13.429 119.485 7.88004C90.6769 20.7876 89.8365 47.4772 101.884 74.4291C101.884 74.4291 96.9031 72.9275 94.3946 74.4291C90.6498 76.6707 99.2628 110.912 105.254 114.431C109.002 116.633 115.74 118.172 115.74 118.172C115.74 118.172 120.844 127.979 123.229 134.622Z" fill="#659B9D" stroke="#659B9D" stroke-width="2"></path></svg> 