<?xml version="1.0" encoding="UTF-8"?> <svg xmlns="http://www.w3.org/2000/svg" width="1244" height="829" viewBox="0 0 1244 829" fill="none"> <path d="M1216.92 91.8022C1217.1 112.689 1244 139.809 1244 139.809V829H0V139.809C0 139.809 2.5 104 20.5 76C29.0142 62.7557 60.5 54 60.5 54C60.5 54 40.5515 83.3876 45.5 93.5C52.6069 108.023 65.9226 99.3538 73.4893 113.7C80.9188 127.786 101.587 54.299 112 68.5C115.5 73.2733 158.77 116.392 160 79.59C160.55 63.1483 147.5 18.95 147.5 18.95C147.5 18.95 166.96 40.382 173 57.5C179.233 75.1658 182.06 95.7266 187 113.7C193.6 137.714 239.5 18.95 234.5 79.59C226.413 177.667 275.37 98.2384 285.5 68.5C292.535 47.8463 295.891 24.4244 295.891 24.4244C330.5 79.59 288.639 86.3037 314 117.069C323.761 128.91 340.446 132.268 351.975 121.701C359.43 114.869 354.876 97.6978 354.876 97.6978L386.302 139.809C388.275 105.335 395.904 95.8265 413.377 84.6433C413.377 84.6433 408.929 103.035 413.377 113.7C419.168 127.585 427.855 139.264 444.804 139.809C462.447 140.376 467.824 125.85 478.647 113.7C489.208 101.845 494.404 94.0623 498.954 79.59C504.688 61.3492 498.954 31.1622 498.954 31.1622C498.954 31.1622 529.392 53.678 530.38 73.2733C531.069 86.9376 514.8 93.1172 517.81 106.541C522.648 128.125 557.955 148.173 575.344 132.229C587.828 120.783 566.741 105.698 575.344 91.8022C587.728 71.7991 627.491 93.8038 638.68 73.2733C649.825 52.8247 602.824 38.7235 615.473 18.95C622.588 7.82771 645.932 0 645.932 0L632.878 31.1622C627.78 43.3318 678.408 55.5099 676.875 79.59C675.788 96.6836 644.688 100.788 650.767 117.069C657.919 136.224 701.133 143.925 709.269 125.07C712.191 118.297 706.582 113.388 709.269 106.541C713.982 94.527 731.773 98.0715 739.244 87.17C749.212 72.6255 739.244 43.7956 739.244 43.7956C739.244 43.7956 764.667 58.4203 769.704 73.2733C774.919 88.6497 751.714 100.112 761.485 113.7C771.189 127.197 806.448 125.07 806.448 125.07C812.055 116.578 814.746 111.489 812.734 97.6978C821.931 97.4628 826.22 101.769 833.04 113.7C831.534 83.8893 839.957 71.2378 861.082 51.3756C861.082 51.3756 855.574 72.5697 861.082 84.6433C865.831 95.0538 874.56 97.631 882.355 106.541C895.626 121.71 912.331 147.81 912.331 147.81C908.683 118.222 912.327 106.459 926.352 91.8022C926.352 91.8022 929.565 106.541 937.472 106.541C945.38 106.541 945.309 98.0678 948.592 91.8022C957.531 74.7473 948.592 43.7956 948.592 43.7956C948.592 43.7956 971.186 68.6213 970.832 87.17C970.686 94.8773 966.481 106.541 966.481 106.541C966.481 106.541 968.945 143.307 988.721 147.81C1004.99 151.514 1042.01 158.01 1027.88 132.229C1013.76 106.448 1012.57 93.7247 1019.66 73.2733C1029.26 92.672 1038.51 102.289 1063.18 117.069C1063.18 117.069 1071.11 97.6089 1071.4 84.6433C1071.75 68.2519 1060.28 43.7956 1060.28 43.7956C1060.28 43.7956 1096.38 55.755 1105.24 73.2733C1112.55 87.7214 1097.57 99.3948 1105.24 113.7C1113.01 128.2 1141.5 139.809 1141.5 139.809C1141.5 139.809 1138.18 119.206 1141.5 106.541C1143.86 97.5507 1151.65 84.6433 1151.65 84.6433C1158.23 105.872 1167.3 114.416 1190.82 125.07C1190.82 125.07 1185.7 96.7829 1190.82 79.59C1196.04 62.0556 1216.92 39.1633 1216.92 39.1633C1216.92 39.1633 1229.51 44.9233 1233.85 51.3756C1243.59 65.8805 1216.78 74.9986 1216.92 91.8022Z" fill="#2C2C2C"></path> </svg> 