<?xml version="1.0" encoding="UTF-8"?> <svg xmlns="http://www.w3.org/2000/svg" width="1287" height="450" viewBox="0 0 1287 450" fill="none"> <path d="M28.0109 109C27.829 133.8 0 166 0 166V450H1287V166C1287 166 1259.51 145.011 1248.48 126.5C1234.99 103.832 1231.98 61 1231.98 61C1231.98 61 1216.09 74.9932 1210.97 87C1203.62 104.244 1218.8 117.966 1210.97 135C1203.28 151.725 1193.05 160.569 1175.46 166C1133.67 178.899 1116.71 115.196 1115.43 71.5C1114.86 51.9782 1125.44 22.5 1125.44 22.5C1125.44 22.5 1093.17 40.6752 1086.92 61C1080.47 81.9752 1103.54 94.6596 1098.43 116C1091.6 144.512 1071.7 164.553 1042.4 166C1005.6 167.818 991.361 129.809 980.881 94.5C973.603 69.9771 980.881 29 980.881 29C980.881 29 952.937 43.881 945.867 61C935.761 85.4736 978.822 104.993 963.374 126.5C953.276 140.559 934.786 157.046 922.859 144.5C915.146 136.388 919.857 116 919.857 116L887.345 166C885.304 125.068 877.411 113.778 859.334 100.5C859.334 100.5 863.936 122.336 859.334 135C853.343 151.486 844.356 165.353 826.821 166C808.568 166.674 803.005 149.426 791.808 135C780.882 120.924 775.506 111.684 770.799 94.5C764.867 72.842 770.799 37 770.799 37C770.799 37 739.309 63.7338 738.287 87C737.574 103.224 754.405 110.561 751.292 126.5C746.286 152.127 709.759 175.931 691.769 157C678.853 143.409 700.669 125.499 691.769 109C678.956 85.2496 637.819 111.377 626.243 87C614.713 62.7207 663.339 45.9778 650.253 22.5C642.892 9.29411 618.74 0 618.74 0L632.246 37C637.52 51.4494 585.143 65.9088 586.728 94.5C587.853 114.796 620.027 119.67 613.738 139C606.339 161.744 561.632 170.887 553.215 148.5C550.191 140.458 555.994 134.63 553.215 126.5C548.339 112.235 529.932 116.444 522.203 103.5C511.89 86.2308 522.203 52 522.203 52C522.203 52 495.902 69.3644 490.691 87C485.296 105.257 509.302 118.866 499.194 135C489.154 151.026 452.676 148.5 452.676 148.5C446.875 138.417 444.091 132.375 446.173 116C436.658 115.721 432.221 120.833 425.165 135C426.723 99.6047 418.009 84.5831 396.154 61C396.154 61 401.852 86.1645 396.154 100.5C391.24 112.861 382.21 115.921 374.145 126.5C360.416 144.51 343.133 175.5 343.133 175.5C346.907 140.369 343.137 126.402 328.628 109C328.628 109 325.304 126.5 317.123 126.5C308.942 126.5 309.016 116.439 305.619 109C296.372 88.7501 305.619 52 305.619 52C305.619 52 282.244 81.4765 282.61 103.5C282.762 112.651 287.112 126.5 287.112 126.5C287.112 126.5 284.562 170.154 264.103 175.5C247.273 179.897 208.973 187.61 223.587 157C238.201 126.39 239.43 111.283 232.09 87C222.16 110.033 212.596 121.451 187.073 139C187.073 139 178.861 115.894 178.569 100.5C178.2 81.0379 190.074 52 190.074 52C190.074 52 152.721 66.1999 143.556 87C135.997 104.155 151.489 118.015 143.556 135C135.514 152.217 106.041 166 106.041 166C106.041 166 109.482 141.537 106.041 126.5C103.599 115.825 95.5371 100.5 95.5371 100.5C88.7313 125.706 79.3504 135.85 55.0214 148.5C55.0214 148.5 60.3147 114.914 55.0214 94.5C49.6229 73.6808 28.0109 46.5 28.0109 46.5C28.0109 46.5 14.987 53.339 10.5041 61C0.426309 78.2222 28.1572 89.0484 28.0109 109Z" fill="#FAF9F8"></path> </svg> 