<?xml version="1.0" encoding="UTF-8"?> <svg xmlns="http://www.w3.org/2000/svg" width="1229" height="461" viewBox="0 0 1229 461" fill="none"> <path d="M0 176C0 176 17.2488 156.784 24 142C32.6697 123.015 34 89.5 34 89.5C34 89.5 50.7429 109.831 55.5 125.5C63.9459 153.319 46.3057 204.859 99.5 167C109.588 159.82 119 142 119 142C119 142 124.289 142.84 127.5 142C139.779 138.789 127.5 109.5 127.5 109.5C127.5 109.5 140.602 124.73 145 136.5C150.42 151.007 148.5 176 148.5 176C148.5 176 162.238 176.132 169 171.5C180.684 163.496 168.023 146.03 178.5 136.5C188.387 127.507 205.533 141.196 212 129.5C219.421 116.077 189.23 111.169 191.5 96C193.544 82.3422 216 70.5 216 70.5C216 70.5 209.875 88.5699 212 100C215.465 118.637 239.373 118.117 244 136.5C255.437 181.937 247.581 130.824 283 109.5C283 109.5 273.617 129.727 277.5 142C282.145 156.684 308 167 308 167C308 167 334.727 145.256 338.5 125.5C342.739 103.301 320.5 70.5 320.5 70.5C320.5 70.5 358.257 94.9669 363 120C367.329 142.847 340.09 198.658 374.5 154.5C386.205 139.479 396.747 135.74 387.5 114C387.5 114 402.027 134.661 404 150C404.847 156.585 404 167 404 167C404 167 420.374 168.544 427.5 162.5C440.613 151.378 411.391 136.565 416 120C420.628 103.368 448 89.5 448 89.5C448 89.5 431.324 108.119 434 120C436.261 130.038 454.162 131.876 456 142C458.579 156.203 448 174.5 448 174.5C448 174.5 469.559 163.065 474.5 146.5C477.8 135.435 472.5 117 472.5 117C472.5 117 487.553 133.346 491 146.5C493.234 155.024 507.646 216.637 530.5 171.5C534.293 164.009 532.528 158.148 530.5 150C528.283 141.092 521.211 138.409 519 129.5C515.814 116.662 524 96 524 96C524 96 521.162 117.337 530.5 120C535.694 121.481 539.539 120.044 544 117C555.388 109.229 534.5 83 534.5 83C534.5 83 549.722 97.4469 554.5 109.5C556.409 114.315 531.125 152.5 578.5 171.5C587.707 175.193 578.882 155.525 583 146.5C589.25 132.803 606.109 134.239 611 120C617.705 100.483 589.729 90.95 592.5 70.5C595.841 45.848 642.715 47.3081 635.5 23.5C634.511 20.2365 632 15.5 632 15.5C632 15.5 655.687 35.4239 651.5 50.5C647.333 65.5055 624.476 56.8384 617 70.5C607.494 87.8717 626.121 100.287 628 120C629.445 135.162 617.299 148.162 628 159C634.811 165.899 642.039 169.115 651.5 167C669.61 162.951 632.462 134.123 644.5 120C649.779 113.806 662.5 109.5 662.5 109.5C653.547 129.01 654.084 139.104 671 154.5C687.916 169.896 698.353 133.117 698.5 114C698.619 98.5439 681 78.5 681 78.5C681 78.5 717.581 98.0713 719 120C719.79 132.206 704.864 138.899 710 150C713.078 156.652 716.702 161.825 724 162.5C734.233 163.447 737.172 151.723 740.5 142C743.662 132.763 740.5 117 740.5 117C740.5 117 748.474 120.992 751.5 125.5C756.832 133.444 751.5 150 751.5 150C751.5 150 776.345 129.064 776 109.5C775.681 91.4107 754.565 89.5919 754.5 71.5C754.457 59.4982 768.189 50.0004 768 38C767.875 30.0886 760.5 23.5 760.5 23.5C760.5 23.5 772.37 30.5483 776 38C781.057 48.3806 765.488 59.6976 774 67.5C784.819 77.4176 796.715 67.4892 802.5 54C809.172 38.4409 797 0 797 0C797 0 815.718 21.2792 817 38C818.021 51.3236 814.334 59.1369 808.672 71.1366L808.5 71.5C803.531 82.032 795.078 84.9178 791.5 96C785.298 115.208 802.5 146.5 802.5 146.5C802.5 146.5 801.397 126.368 808.5 117C814.894 108.566 832 103.5 832 103.5C832 103.5 817.423 120.718 817.5 130C817.589 140.741 824.5 147.5 845.5 144.5C866.5 141.5 859.5 108 901 96C901 96 888.969 109.992 895 120C899.167 126.914 931.868 129.291 935.5 136.5C938.663 142.778 935.5 154.5 935.5 154.5C935.5 154.5 958.5 144.5 947 127C935.5 109.5 939.019 93.9191 956 70C956 70 943.907 91.5811 953.5 107C958.17 114.507 970.022 121.014 972.5 129.5C973.868 134.186 972.5 142 972.5 142C972.5 142 1001.44 132.039 999.5 114C997.911 99.2029 979.478 87.6925 975 73.5C967.898 50.9907 992 15.5 992 15.5C972.5 77 995.5 102 1026.5 15.5C1026.5 15.5 1021.09 37.8991 1024.5 51.5C1028.12 65.975 1038.18 67.9526 1041.5 82.5C1045.43 99.7221 1029.65 102.535 1027 120C1023.67 141.964 1037 176 1037 176C1037 176 1048.78 154.993 1048 140.5C1047.68 134.535 1044.33 131.436 1045 125.5C1046.33 113.697 1066 103.5 1066 103.5C1066 103.5 1058.98 116.653 1060 125.5C1060.72 131.768 1064.62 134.343 1066 140.5C1067.87 148.885 1066 162.5 1066 162.5C1066 162.5 1073.67 133.181 1087 114C1096.55 100.257 1121.93 94.9503 1125 78.5C1128.47 59.9119 1111.5 32 1111.5 32C1111.5 32 1164.31 80.4719 1152 114C1146.31 129.49 1123.1 130.109 1125 146.5C1126.49 159.419 1134.52 167.837 1147 171.5C1164.08 176.512 1178.08 145.896 1182.79 134.042C1183.23 132.47 1183.79 130.951 1184.5 129.5C1184.5 129.5 1183.9 131.251 1182.79 134.042C1179.63 145.412 1183.02 159.599 1186.5 171.5C1192.42 191.715 1229 181.5 1229 181.5V461H0V176Z" fill="#8EA5AF"></path> </svg> 